<?xml version="1.0" encoding="UTF-8"?>
<svg id="Layer_2" data-name="Layer 2" xmlns="http://www.w3.org/2000/svg" xmlns:xlink="http://www.w3.org/1999/xlink" viewBox="0 0 109.67 65.87">
  <defs>
    <style>
      .cls-1 {
        fill: url(#radial-gradient);
      }

      .cls-1, .cls-2, .cls-3 {
        stroke-width: 0px;
      }

      .cls-2 {
        fill: #981b49;
      }

      .cls-3 {
        fill: #fff;
      }
    </style>
    <radialGradient id="radial-gradient" cx="74.92" cy="147.6" fx="60.07" fy="140.89" r="70.86" gradientTransform="translate(-91.11 289.23) scale(1.67 -1.67)" gradientUnits="userSpaceOnUse">
      <stop offset="0" stop-color="#df7433"/>
      <stop offset=".1" stop-color="#de6d31"/>
      <stop offset=".23" stop-color="#da5a2b"/>
      <stop offset=".26" stop-color="#d9562a"/>
      <stop offset=".3" stop-color="#d6482e"/>
      <stop offset=".39" stop-color="#d12935"/>
      <stop offset=".48" stop-color="#cd173a"/>
      <stop offset=".53" stop-color="#cc103c"/>
      <stop offset=".74" stop-color="#a62156"/>
    </radialGradient>
  </defs>
  <g id="Layer_1-2" data-name="Layer 1">
    <g>
      <path class="cls-3" d="M103.66,2.52c-.5-1.8-2.31-2.84-4.2-2.42L21,20.47c-1.81.47-4.21,2.07-5.34,3.56L.59,43.92c-1.13,1.49-.56,3.03,1.27,3.42l85.3,18.45c1.82.39,3.7-.76,4.16-2.57l13.18-51.45c.46-1.81.43-4.76-.07-6.56l-.77-2.69Z"/>
      <path class="cls-2" d="M109.05,5.18c-.52-1.75-1.31-3.14-3.22-3.76-1.53-.49-3.01-.91-4.64-1.3h0c1.17.3,2.11,1.17,2.46,2.4l.76,2.7c.5,1.8.54,4.75.07,6.56l-13.18,51.45c-.02.08-.05.15-.07.23l17.67-48.69c.38-1.25.77-1.94.77-4.11,0-2.24-.62-5.48-.62-5.48Z"/>
      <path id="SVGID" class="cls-1" d="M104.41,5.21l-.76-2.7c-.5-1.8-2.31-2.84-4.2-2.42L20.99,20.46c-1.81.47-4.21,2.07-5.34,3.56L.58,43.91c-1.13,1.49-.56,3.03,1.27,3.42l17.04,3.68c-.64-.43-1.23-.91-1.76-1.47-1.03-1.09-1.8-2.39-2.3-3.9-.51-1.51-.68-3.18-.52-5.01.16-1.87.64-3.56,1.42-5.07s1.79-2.8,3.03-3.87c1.24-1.06,2.66-1.88,4.25-2.45s3.28-.86,5.07-.86c1.65,0,3.25.29,4.8.87s2.77,1.43,3.66,2.55l-4.17,3.82c-.47-.72-1.11-1.26-1.94-1.61-.83-.35-1.69-.53-2.6-.53-.99,0-1.92.18-2.77.54-.86.36-1.61.86-2.26,1.5-.65.64-1.18,1.39-1.59,2.26s-.66,1.82-.75,2.85c-.09,1.05-.01,2.02.24,2.9s.64,1.63,1.17,2.26c.53.62,1.19,1.11,1.97,1.46s1.66.53,2.63.53c1.12,0,2.12-.22,3-.66s1.6-1.01,2.17-1.71l3.61,3.69c-1.14,1.19-2.5,2.12-4.08,2.82-1.14.5-2.38.81-3.73.95l28.59,6.18.81-3.72c.26.09.54.16.86.21.31.05.6.08.87.08.84,0,1.46-.19,1.87-.58.41-.38.78-.93,1.1-1.63l.65-1.35-5.46-16.14h6.02l2.75,10.54h.1l4.19-10.54h5.75l-9.02,18.87c-.41.86-.84,1.62-1.31,2.29s-1,1.24-1.6,1.71-1.3.83-2.08,1.07c-.26.08-.53.14-.81.19l26.43,5.72c1.82.39,3.7-.76,4.16-2.57l13.18-51.45c.46-1.79.42-4.74-.08-6.54ZM41.72,52.34h-5.42l1.43-16.4h5.42l-1.43,16.4ZM44.01,30.71c-.04.42-.15.81-.35,1.17-.2.36-.45.67-.74.94-.3.26-.65.47-1.05.63-.4.15-.81.23-1.23.23-.88,0-1.59-.29-2.14-.87-.54-.58-.78-1.28-.71-2.09.03-.4.14-.77.33-1.14.19-.36.43-.67.74-.94.31-.26.66-.48,1.05-.64.39-.16.8-.25,1.25-.25.42,0,.81.08,1.19.23.37.15.69.36.94.63.25.26.45.58.58.94.13.35.17.74.14,1.16ZM55.95,39.96h-3.87l-.55,6.28c-.07.77.03,1.35.29,1.74.26.39.78.58,1.55.58.26,0,.55-.02.85-.07.3-.04.56-.11.76-.2l-.28,3.95c-.39.13-.87.25-1.45.35-.58.1-1.16.15-1.73.15-1.1,0-2.02-.14-2.74-.41-.73-.28-1.29-.67-1.7-1.19s-.68-1.13-.81-1.85c-.14-.72-.17-1.51-.09-2.39l.61-6.93h-2.64l.35-4.02h2.61l.38-4.31h5.32l-.38,4.31h3.87l-.35,4.01ZM96.18,43.55c-.12,1.41-.47,2.68-1.05,3.84-.57,1.15-1.34,2.14-2.29,2.96-.95.82-2.07,1.47-3.36,1.93-1.29.46-2.69.69-4.21.69s-2.91-.23-4.11-.69c-1.19-.46-2.18-1.1-2.97-1.93-.79-.82-1.36-1.81-1.72-2.96-.36-1.15-.48-2.43-.36-3.84l1.27-14.52h5.62l-1.23,14.06c-.06.64-.03,1.24.09,1.81s.32,1.08.63,1.53c.3.45.72.81,1.26,1.07s1.2.4,2,.4,1.48-.13,2.07-.4c.59-.26,1.07-.62,1.47-1.07.39-.45.69-.96.89-1.53s.33-1.17.39-1.81l1.23-14.06h5.65l-1.27,14.52Z"/>
    </g>
  </g>
</svg>